# xmcd CD database file
#
# Track frame offsets:
#	150
#	28030
#	46619
#	66589
#	87530
#	106031
#	121504
#	140026
#	153980
#	165238
#	180334
#
# Disc length: 2617 seconds
#
# Revision: 1
# Processed by: cddbd v1.4PL0 Copyright (c) Steve Scherf et al.
# Submitted via: CDex 1.50beta9
#
DISCID=810a370b
DTITLE=Agostino Marangolo - Day by Day
DYEAR=2002
DGENRE=Jazz
TTITLE0=Day by Day
TTITLE1=Waterloo
TTITLE2=Goodbye Weather
TTITLE3=Jaz no Jaz
TTITLE4=New Love
TTITLE5=Fiesta Loca
TTITLE6=Miriam
TTITLE7=Lucky Star
TTITLE8=Ordinedisordine
TTITLE9=Salsa Verde
TTITLE10=Nadeen
EXTD=YEAR: 2002
EXTT0=
EXTT1=
EXTT2=
EXTT3=
EXTT4=
EXTT5=
EXTT6=
EXTT7=
EXTT8=
EXTT9=
EXTT10=
PLAYORDER=
